<mxfile host="app.diagrams.net" agent="Mozilla/5.0 (Macintosh; Intel Mac OS X 10_15_7) AppleWebKit/537.36 (KHTML, like Gecko) Chrome/138.0.0.0 Safari/537.36 Edg/138.0.0.0" version="28.0.9">
  <diagram name="第 1 页" id="7w6zi9jCp_np2msTW12s">
    <mxGraphModel dx="2011" dy="1188" grid="1" gridSize="10" guides="1" tooltips="1" connect="1" arrows="1" fold="1" page="1" pageScale="1" pageWidth="827" pageHeight="1169" math="0" shadow="0">
      <root>
        <mxCell id="0" />
        <mxCell id="1" parent="0" />
        <mxCell id="krUybGp2ORGPFsP9SGWh-8" value="" style="rounded=0;whiteSpace=wrap;html=1;fillColor=#D9D9D9;fontColor=#333333;strokeColor=#666666;" vertex="1" parent="1">
          <mxGeometry x="165" y="625" width="445" height="370" as="geometry" />
        </mxCell>
        <mxCell id="krUybGp2ORGPFsP9SGWh-2" value="" style="rounded=0;whiteSpace=wrap;html=1;fillColor=#D9D9D9;fontColor=#333333;strokeColor=#666666;" vertex="1" parent="1">
          <mxGeometry x="165" y="160" width="440" height="430" as="geometry" />
        </mxCell>
        <mxCell id="sU835gR6TyCPR4Zn5wwY-1" value="" style="rounded=0;whiteSpace=wrap;html=1;fillColor=#CCCCCC;fontColor=#333333;strokeColor=#666666;" parent="1" vertex="1">
          <mxGeometry x="170" y="1015" width="440" height="281" as="geometry" />
        </mxCell>
        <mxCell id="_sHUTvcMdDTdJ8EnGrEK-1" value="&lt;div&gt;&lt;font&gt;command&lt;/font&gt;&lt;/div&gt;&lt;font&gt;决策命令&lt;/font&gt;" style="rounded=0;whiteSpace=wrap;html=1;fillColor=#26C0E5;" parent="1" vertex="1">
          <mxGeometry x="160" y="80" width="110" height="40" as="geometry" />
        </mxCell>
        <mxCell id="_sHUTvcMdDTdJ8EnGrEK-2" value="&lt;font&gt;Domain Event&lt;/font&gt;&lt;div&gt;&lt;font&gt;领域事件&lt;/font&gt;&lt;/div&gt;" style="rounded=0;whiteSpace=wrap;html=1;fillColor=#FFAA60;" parent="1" vertex="1">
          <mxGeometry x="300" y="80" width="110" height="40" as="geometry" />
        </mxCell>
        <mxCell id="_sHUTvcMdDTdJ8EnGrEK-3" value="Read Model&lt;div&gt;读模型&lt;/div&gt;" style="rounded=0;whiteSpace=wrap;html=1;fillColor=#D7F792;" parent="1" vertex="1">
          <mxGeometry x="720" y="80" width="110" height="40" as="geometry" />
        </mxCell>
        <mxCell id="_sHUTvcMdDTdJ8EnGrEK-4" value="External System&lt;div&gt;外部系统&lt;/div&gt;" style="rounded=0;whiteSpace=wrap;html=1;fillColor=#EA97BC;" parent="1" vertex="1">
          <mxGeometry x="440" y="80" width="110" height="40" as="geometry" />
        </mxCell>
        <mxCell id="_sHUTvcMdDTdJ8EnGrEK-5" value="business Policy&lt;div&gt;业务策略/规则&lt;/div&gt;" style="rounded=0;whiteSpace=wrap;html=1;fillColor=#B68BBF;" parent="1" vertex="1">
          <mxGeometry x="580" y="80" width="110" height="40" as="geometry" />
        </mxCell>
        <mxCell id="_sHUTvcMdDTdJ8EnGrEK-8" value="&lt;font&gt;Entity Val Aggr&lt;/font&gt;&lt;div&gt;&lt;font&gt;领域对象&lt;/font&gt;&lt;/div&gt;" style="rounded=0;whiteSpace=wrap;html=1;fillColor=#FFE270;" parent="1" vertex="1">
          <mxGeometry x="860" y="80" width="110" height="40" as="geometry" />
        </mxCell>
        <mxCell id="CuO03zdZ_H9ETCIROUNS-101" style="edgeStyle=orthogonalEdgeStyle;rounded=0;orthogonalLoop=1;jettySize=auto;html=1;curved=1;" parent="1" source="sNWVwF46tpGVJdv4zzlN-1" target="sNWVwF46tpGVJdv4zzlN-2" edge="1">
          <mxGeometry relative="1" as="geometry" />
        </mxCell>
        <mxCell id="CuO03zdZ_H9ETCIROUNS-103" style="edgeStyle=orthogonalEdgeStyle;rounded=0;orthogonalLoop=1;jettySize=auto;html=1;entryX=0;entryY=0.5;entryDx=0;entryDy=0;" parent="1" source="sNWVwF46tpGVJdv4zzlN-1" target="sNWVwF46tpGVJdv4zzlN-3" edge="1">
          <mxGeometry relative="1" as="geometry" />
        </mxCell>
        <mxCell id="CuO03zdZ_H9ETCIROUNS-105" style="edgeStyle=orthogonalEdgeStyle;rounded=0;orthogonalLoop=1;jettySize=auto;html=1;entryX=0;entryY=0.5;entryDx=0;entryDy=0;" parent="1" source="sNWVwF46tpGVJdv4zzlN-1" target="CuO03zdZ_H9ETCIROUNS-13" edge="1">
          <mxGeometry relative="1" as="geometry" />
        </mxCell>
        <mxCell id="CuO03zdZ_H9ETCIROUNS-106" style="edgeStyle=orthogonalEdgeStyle;rounded=0;orthogonalLoop=1;jettySize=auto;html=1;entryX=0;entryY=0.5;entryDx=0;entryDy=0;" parent="1" source="sNWVwF46tpGVJdv4zzlN-1" target="sNWVwF46tpGVJdv4zzlN-4" edge="1">
          <mxGeometry relative="1" as="geometry" />
        </mxCell>
        <mxCell id="CuO03zdZ_H9ETCIROUNS-107" style="edgeStyle=orthogonalEdgeStyle;rounded=0;orthogonalLoop=1;jettySize=auto;html=1;entryX=0;entryY=0.5;entryDx=0;entryDy=0;" parent="1" source="sNWVwF46tpGVJdv4zzlN-1" target="CuO03zdZ_H9ETCIROUNS-90" edge="1">
          <mxGeometry relative="1" as="geometry" />
        </mxCell>
        <mxCell id="CuO03zdZ_H9ETCIROUNS-109" style="edgeStyle=orthogonalEdgeStyle;rounded=0;orthogonalLoop=1;jettySize=auto;html=1;entryX=0;entryY=0.5;entryDx=0;entryDy=0;" parent="1" source="sNWVwF46tpGVJdv4zzlN-1" target="sNWVwF46tpGVJdv4zzlN-6" edge="1">
          <mxGeometry relative="1" as="geometry" />
        </mxCell>
        <mxCell id="CuO03zdZ_H9ETCIROUNS-110" style="edgeStyle=orthogonalEdgeStyle;rounded=0;orthogonalLoop=1;jettySize=auto;html=1;entryX=0;entryY=0.5;entryDx=0;entryDy=0;" parent="1" source="sNWVwF46tpGVJdv4zzlN-1" target="CuO03zdZ_H9ETCIROUNS-66" edge="1">
          <mxGeometry relative="1" as="geometry" />
        </mxCell>
        <mxCell id="sNWVwF46tpGVJdv4zzlN-1" value="运营" style="shape=umlActor;verticalLabelPosition=bottom;verticalAlign=top;html=1;outlineConnect=0;" parent="1" vertex="1">
          <mxGeometry x="80" y="235" width="30" height="60" as="geometry" />
        </mxCell>
        <mxCell id="CuO03zdZ_H9ETCIROUNS-28" style="edgeStyle=orthogonalEdgeStyle;rounded=0;orthogonalLoop=1;jettySize=auto;html=1;exitX=1;exitY=0.5;exitDx=0;exitDy=0;entryX=0;entryY=0.5;entryDx=0;entryDy=0;" parent="1" source="sNWVwF46tpGVJdv4zzlN-2" target="CuO03zdZ_H9ETCIROUNS-2" edge="1">
          <mxGeometry relative="1" as="geometry" />
        </mxCell>
        <mxCell id="sNWVwF46tpGVJdv4zzlN-2" value="新建-销售组" style="rounded=0;whiteSpace=wrap;html=1;fillColor=#26C0E5;" parent="1" vertex="1">
          <mxGeometry x="190" y="245" width="110" height="40" as="geometry" />
        </mxCell>
        <mxCell id="CuO03zdZ_H9ETCIROUNS-27" style="edgeStyle=orthogonalEdgeStyle;rounded=0;orthogonalLoop=1;jettySize=auto;html=1;" parent="1" source="sNWVwF46tpGVJdv4zzlN-3" target="CuO03zdZ_H9ETCIROUNS-9" edge="1">
          <mxGeometry relative="1" as="geometry" />
        </mxCell>
        <mxCell id="sNWVwF46tpGVJdv4zzlN-3" value="修改-销售组" style="rounded=0;whiteSpace=wrap;html=1;fillColor=#26C0E5;" parent="1" vertex="1">
          <mxGeometry x="190" y="325" width="110" height="40" as="geometry" />
        </mxCell>
        <mxCell id="CuO03zdZ_H9ETCIROUNS-76" style="edgeStyle=orthogonalEdgeStyle;rounded=0;orthogonalLoop=1;jettySize=auto;html=1;entryX=0;entryY=0.5;entryDx=0;entryDy=0;" parent="1" source="sNWVwF46tpGVJdv4zzlN-4" target="CuO03zdZ_H9ETCIROUNS-39" edge="1">
          <mxGeometry relative="1" as="geometry" />
        </mxCell>
        <mxCell id="sNWVwF46tpGVJdv4zzlN-4" value="绑定/解绑-组关联地理区域" style="rounded=0;whiteSpace=wrap;html=1;fillColor=#26C0E5;" parent="1" vertex="1">
          <mxGeometry x="190" y="835" width="110" height="40" as="geometry" />
        </mxCell>
        <mxCell id="CuO03zdZ_H9ETCIROUNS-77" style="edgeStyle=orthogonalEdgeStyle;rounded=0;orthogonalLoop=1;jettySize=auto;html=1;entryX=0;entryY=0.5;entryDx=0;entryDy=0;" parent="1" source="sNWVwF46tpGVJdv4zzlN-6" target="CuO03zdZ_H9ETCIROUNS-62" edge="1">
          <mxGeometry relative="1" as="geometry" />
        </mxCell>
        <mxCell id="sNWVwF46tpGVJdv4zzlN-6" value="增加-销售人员" style="rounded=0;whiteSpace=wrap;html=1;fillColor=#26C0E5;" parent="1" vertex="1">
          <mxGeometry x="190" y="1085" width="110" height="40" as="geometry" />
        </mxCell>
        <mxCell id="sNWVwF46tpGVJdv4zzlN-7" value="创建-预算池" style="rounded=0;whiteSpace=wrap;html=1;fillColor=#26C0E5;" parent="1" vertex="1">
          <mxGeometry x="180" y="1770" width="110" height="40" as="geometry" />
        </mxCell>
        <mxCell id="sNWVwF46tpGVJdv4zzlN-8" value="passport" style="rounded=0;whiteSpace=wrap;html=1;fillColor=#EA97BC;" parent="1" vertex="1">
          <mxGeometry x="670" y="165" width="110" height="40" as="geometry" />
        </mxCell>
        <mxCell id="CuO03zdZ_H9ETCIROUNS-17" style="edgeStyle=orthogonalEdgeStyle;rounded=0;orthogonalLoop=1;jettySize=auto;html=1;entryX=0;entryY=0.5;entryDx=0;entryDy=0;" parent="1" source="sNWVwF46tpGVJdv4zzlN-9" target="CuO03zdZ_H9ETCIROUNS-8" edge="1">
          <mxGeometry relative="1" as="geometry" />
        </mxCell>
        <mxCell id="sNWVwF46tpGVJdv4zzlN-9" value="销售组已创建" style="rounded=0;whiteSpace=wrap;html=1;fillColor=#FFAA60;" parent="1" vertex="1">
          <mxGeometry x="670" y="245" width="110" height="40" as="geometry" />
        </mxCell>
        <mxCell id="sNWVwF46tpGVJdv4zzlN-10" value="指派-B端申请门店" style="rounded=0;whiteSpace=wrap;html=1;fillColor=#26C0E5;" parent="1" vertex="1">
          <mxGeometry x="180" y="1700" width="110" height="40" as="geometry" />
        </mxCell>
        <mxCell id="sNWVwF46tpGVJdv4zzlN-11" value="配置-目标" style="rounded=0;whiteSpace=wrap;html=1;fillColor=#26C0E5;" parent="1" vertex="1">
          <mxGeometry x="180" y="1850" width="110" height="40" as="geometry" />
        </mxCell>
        <mxCell id="sNWVwF46tpGVJdv4zzlN-12" value="业绩分析" style="rounded=0;whiteSpace=wrap;html=1;fillColor=#26C0E5;" parent="1" vertex="1">
          <mxGeometry x="180" y="1920" width="110" height="40" as="geometry" />
        </mxCell>
        <mxCell id="CuO03zdZ_H9ETCIROUNS-1" value="查看-业绩" style="rounded=0;whiteSpace=wrap;html=1;fillColor=#26C0E5;" parent="1" vertex="1">
          <mxGeometry x="180" y="1980" width="110" height="40" as="geometry" />
        </mxCell>
        <mxCell id="CuO03zdZ_H9ETCIROUNS-29" style="edgeStyle=orthogonalEdgeStyle;rounded=0;orthogonalLoop=1;jettySize=auto;html=1;entryX=0;entryY=0.5;entryDx=0;entryDy=0;" parent="1" source="CuO03zdZ_H9ETCIROUNS-2" target="sNWVwF46tpGVJdv4zzlN-9" edge="1">
          <mxGeometry relative="1" as="geometry" />
        </mxCell>
        <mxCell id="CuO03zdZ_H9ETCIROUNS-2" value="组创建规则检查" style="rounded=0;whiteSpace=wrap;html=1;fillColor=#B68BBF;" parent="1" vertex="1">
          <mxGeometry x="335" y="245" width="110" height="40" as="geometry" />
        </mxCell>
        <mxCell id="CuO03zdZ_H9ETCIROUNS-8" value="组信息" style="rounded=0;whiteSpace=wrap;html=1;fillColor=#D7F792;" parent="1" vertex="1">
          <mxGeometry x="865" y="355" width="110" height="40" as="geometry" />
        </mxCell>
        <mxCell id="CuO03zdZ_H9ETCIROUNS-30" style="edgeStyle=orthogonalEdgeStyle;rounded=0;orthogonalLoop=1;jettySize=auto;html=1;entryX=0;entryY=0.5;entryDx=0;entryDy=0;" parent="1" source="CuO03zdZ_H9ETCIROUNS-9" target="CuO03zdZ_H9ETCIROUNS-22" edge="1">
          <mxGeometry relative="1" as="geometry" />
        </mxCell>
        <mxCell id="CuO03zdZ_H9ETCIROUNS-9" value="组创建规则检查" style="rounded=0;whiteSpace=wrap;html=1;fillColor=#B68BBF;" parent="1" vertex="1">
          <mxGeometry x="335" y="325" width="110" height="40" as="geometry" />
        </mxCell>
        <mxCell id="CuO03zdZ_H9ETCIROUNS-19" value="" style="edgeStyle=orthogonalEdgeStyle;rounded=0;orthogonalLoop=1;jettySize=auto;html=1;" parent="1" source="CuO03zdZ_H9ETCIROUNS-11" target="CuO03zdZ_H9ETCIROUNS-8" edge="1">
          <mxGeometry relative="1" as="geometry" />
        </mxCell>
        <mxCell id="CuO03zdZ_H9ETCIROUNS-11" value="销售组已启用" style="rounded=0;whiteSpace=wrap;html=1;fillColor=#FFAA60;" parent="1" vertex="1">
          <mxGeometry x="670" y="385" width="110" height="40" as="geometry" />
        </mxCell>
        <mxCell id="CuO03zdZ_H9ETCIROUNS-24" style="edgeStyle=orthogonalEdgeStyle;rounded=0;orthogonalLoop=1;jettySize=auto;html=1;entryX=0;entryY=0.5;entryDx=0;entryDy=0;" parent="1" source="CuO03zdZ_H9ETCIROUNS-12" target="CuO03zdZ_H9ETCIROUNS-8" edge="1">
          <mxGeometry relative="1" as="geometry" />
        </mxCell>
        <mxCell id="krUybGp2ORGPFsP9SGWh-10" style="edgeStyle=orthogonalEdgeStyle;rounded=0;orthogonalLoop=1;jettySize=auto;html=1;entryX=1;entryY=0.75;entryDx=0;entryDy=0;" edge="1" parent="1" source="CuO03zdZ_H9ETCIROUNS-12" target="CuO03zdZ_H9ETCIROUNS-81">
          <mxGeometry relative="1" as="geometry">
            <Array as="points">
              <mxPoint x="880" y="465" />
              <mxPoint x="880" y="865" />
            </Array>
          </mxGeometry>
        </mxCell>
        <mxCell id="krUybGp2ORGPFsP9SGWh-11" style="edgeStyle=orthogonalEdgeStyle;rounded=0;orthogonalLoop=1;jettySize=auto;html=1;entryX=1;entryY=0.5;entryDx=0;entryDy=0;" edge="1" parent="1" source="CuO03zdZ_H9ETCIROUNS-12" target="CuO03zdZ_H9ETCIROUNS-84">
          <mxGeometry relative="1" as="geometry">
            <Array as="points">
              <mxPoint x="880" y="465" />
              <mxPoint x="880" y="955" />
            </Array>
          </mxGeometry>
        </mxCell>
        <mxCell id="CuO03zdZ_H9ETCIROUNS-12" value="销售组已禁用" style="rounded=0;whiteSpace=wrap;html=1;fillColor=#FFAA60;" parent="1" vertex="1">
          <mxGeometry x="670" y="445" width="110" height="40" as="geometry" />
        </mxCell>
        <mxCell id="CuO03zdZ_H9ETCIROUNS-25" style="edgeStyle=orthogonalEdgeStyle;rounded=0;orthogonalLoop=1;jettySize=auto;html=1;entryX=0;entryY=0.5;entryDx=0;entryDy=0;" parent="1" source="CuO03zdZ_H9ETCIROUNS-13" target="CuO03zdZ_H9ETCIROUNS-11" edge="1">
          <mxGeometry relative="1" as="geometry" />
        </mxCell>
        <mxCell id="CuO03zdZ_H9ETCIROUNS-26" style="edgeStyle=orthogonalEdgeStyle;rounded=0;orthogonalLoop=1;jettySize=auto;html=1;exitX=1;exitY=0.5;exitDx=0;exitDy=0;entryX=0;entryY=0.5;entryDx=0;entryDy=0;" parent="1" source="CuO03zdZ_H9ETCIROUNS-13" target="CuO03zdZ_H9ETCIROUNS-12" edge="1">
          <mxGeometry relative="1" as="geometry" />
        </mxCell>
        <mxCell id="CuO03zdZ_H9ETCIROUNS-13" value="启用/停用组" style="rounded=0;whiteSpace=wrap;html=1;fillColor=#26C0E5;" parent="1" vertex="1">
          <mxGeometry x="190" y="405" width="110" height="40" as="geometry" />
        </mxCell>
        <mxCell id="CuO03zdZ_H9ETCIROUNS-23" style="edgeStyle=orthogonalEdgeStyle;rounded=0;orthogonalLoop=1;jettySize=auto;html=1;exitX=1;exitY=0.5;exitDx=0;exitDy=0;entryX=0;entryY=0.5;entryDx=0;entryDy=0;" parent="1" source="CuO03zdZ_H9ETCIROUNS-22" target="CuO03zdZ_H9ETCIROUNS-8" edge="1">
          <mxGeometry relative="1" as="geometry" />
        </mxCell>
        <mxCell id="CuO03zdZ_H9ETCIROUNS-22" value="销售组已修改" style="rounded=0;whiteSpace=wrap;html=1;fillColor=#FFAA60;" parent="1" vertex="1">
          <mxGeometry x="670" y="325" width="110" height="40" as="geometry" />
        </mxCell>
        <mxCell id="CuO03zdZ_H9ETCIROUNS-47" value="" style="edgeStyle=orthogonalEdgeStyle;rounded=0;orthogonalLoop=1;jettySize=auto;html=1;entryX=1;entryY=0.25;entryDx=0;entryDy=0;exitX=1;exitY=0.5;exitDx=0;exitDy=0;" parent="1" source="CuO03zdZ_H9ETCIROUNS-35" target="CuO03zdZ_H9ETCIROUNS-63" edge="1">
          <mxGeometry relative="1" as="geometry">
            <mxPoint x="975" y="775" as="targetPoint" />
            <Array as="points">
              <mxPoint x="880" y="585" />
              <mxPoint x="880" y="1235" />
            </Array>
          </mxGeometry>
        </mxCell>
        <mxCell id="CuO03zdZ_H9ETCIROUNS-48" style="edgeStyle=orthogonalEdgeStyle;rounded=0;orthogonalLoop=1;jettySize=auto;html=1;entryX=1;entryY=0.5;entryDx=0;entryDy=0;" parent="1" source="CuO03zdZ_H9ETCIROUNS-31" target="CuO03zdZ_H9ETCIROUNS-37" edge="1">
          <mxGeometry relative="1" as="geometry" />
        </mxCell>
        <mxCell id="CuO03zdZ_H9ETCIROUNS-31" value="调整-组与区域关系" style="rounded=0;whiteSpace=wrap;html=1;fillColor=#26C0E5;" parent="1" vertex="1">
          <mxGeometry x="670" y="685" width="110" height="40" as="geometry" />
        </mxCell>
        <mxCell id="CuO03zdZ_H9ETCIROUNS-49" style="edgeStyle=orthogonalEdgeStyle;rounded=0;orthogonalLoop=1;jettySize=auto;html=1;entryX=0;entryY=0.5;entryDx=0;entryDy=0;" parent="1" source="CuO03zdZ_H9ETCIROUNS-33" target="CuO03zdZ_H9ETCIROUNS-34" edge="1">
          <mxGeometry relative="1" as="geometry" />
        </mxCell>
        <mxCell id="CuO03zdZ_H9ETCIROUNS-33" value="上下级调整规则检查" style="rounded=0;whiteSpace=wrap;html=1;fillColor=#B68BBF;" parent="1" vertex="1">
          <mxGeometry x="340" y="510" width="110" height="40" as="geometry" />
        </mxCell>
        <mxCell id="CuO03zdZ_H9ETCIROUNS-36" value="" style="edgeStyle=orthogonalEdgeStyle;rounded=0;orthogonalLoop=1;jettySize=auto;html=1;" parent="1" source="CuO03zdZ_H9ETCIROUNS-34" target="CuO03zdZ_H9ETCIROUNS-35" edge="1">
          <mxGeometry relative="1" as="geometry" />
        </mxCell>
        <mxCell id="CuO03zdZ_H9ETCIROUNS-46" style="edgeStyle=orthogonalEdgeStyle;rounded=0;orthogonalLoop=1;jettySize=auto;html=1;exitX=0.5;exitY=1;exitDx=0;exitDy=0;entryX=0.5;entryY=0;entryDx=0;entryDy=0;" parent="1" source="CuO03zdZ_H9ETCIROUNS-35" target="CuO03zdZ_H9ETCIROUNS-31" edge="1">
          <mxGeometry relative="1" as="geometry" />
        </mxCell>
        <mxCell id="CuO03zdZ_H9ETCIROUNS-35" value="组与人员关系调整宛完成" style="rounded=0;whiteSpace=wrap;html=1;fillColor=#FFAA60;" parent="1" vertex="1">
          <mxGeometry x="670" y="565" width="110" height="40" as="geometry" />
        </mxCell>
        <mxCell id="CuO03zdZ_H9ETCIROUNS-37" value="组与区域关系-已调整" style="rounded=0;whiteSpace=wrap;html=1;fillColor=#FFAA60;" parent="1" vertex="1">
          <mxGeometry x="460" y="685" width="110" height="40" as="geometry" />
        </mxCell>
        <mxCell id="CuO03zdZ_H9ETCIROUNS-61" style="edgeStyle=orthogonalEdgeStyle;rounded=0;orthogonalLoop=1;jettySize=auto;html=1;exitX=0.5;exitY=1;exitDx=0;exitDy=0;entryX=0.5;entryY=0;entryDx=0;entryDy=0;" parent="1" source="CuO03zdZ_H9ETCIROUNS-39" target="CuO03zdZ_H9ETCIROUNS-40" edge="1">
          <mxGeometry relative="1" as="geometry" />
        </mxCell>
        <mxCell id="CuO03zdZ_H9ETCIROUNS-79" style="edgeStyle=orthogonalEdgeStyle;rounded=0;orthogonalLoop=1;jettySize=auto;html=1;entryX=0;entryY=0.5;entryDx=0;entryDy=0;" parent="1" source="CuO03zdZ_H9ETCIROUNS-39" target="CuO03zdZ_H9ETCIROUNS-53" edge="1">
          <mxGeometry relative="1" as="geometry" />
        </mxCell>
        <mxCell id="krUybGp2ORGPFsP9SGWh-12" value="" style="edgeStyle=orthogonalEdgeStyle;rounded=0;orthogonalLoop=1;jettySize=auto;html=1;" edge="1" parent="1" source="CuO03zdZ_H9ETCIROUNS-39" target="CuO03zdZ_H9ETCIROUNS-53">
          <mxGeometry relative="1" as="geometry" />
        </mxCell>
        <mxCell id="CuO03zdZ_H9ETCIROUNS-39" value="地理区域规则验证" style="rounded=0;whiteSpace=wrap;html=1;fillColor=#B68BBF;" parent="1" vertex="1">
          <mxGeometry x="336" y="835" width="110" height="40" as="geometry" />
        </mxCell>
        <mxCell id="CuO03zdZ_H9ETCIROUNS-40" value="区域已绑定" style="rounded=0;whiteSpace=wrap;html=1;fillColor=#FFAA60;" parent="1" vertex="1">
          <mxGeometry x="336" y="935" width="110" height="40" as="geometry" />
        </mxCell>
        <mxCell id="CuO03zdZ_H9ETCIROUNS-53" value="组与区域关系已解绑" style="rounded=0;whiteSpace=wrap;html=1;fillColor=#FFAA60;" parent="1" vertex="1">
          <mxGeometry x="480" y="835" width="110" height="40" as="geometry" />
        </mxCell>
        <mxCell id="CuO03zdZ_H9ETCIROUNS-65" style="edgeStyle=orthogonalEdgeStyle;rounded=0;orthogonalLoop=1;jettySize=auto;html=1;" parent="1" source="CuO03zdZ_H9ETCIROUNS-62" target="CuO03zdZ_H9ETCIROUNS-64" edge="1">
          <mxGeometry relative="1" as="geometry" />
        </mxCell>
        <mxCell id="CuO03zdZ_H9ETCIROUNS-62" value="业务规则验证" style="rounded=0;whiteSpace=wrap;html=1;fillColor=#B68BBF;" parent="1" vertex="1">
          <mxGeometry x="340" y="1085" width="110" height="40" as="geometry" />
        </mxCell>
        <mxCell id="krUybGp2ORGPFsP9SGWh-3" style="edgeStyle=orthogonalEdgeStyle;rounded=0;orthogonalLoop=1;jettySize=auto;html=1;entryX=1;entryY=0.5;entryDx=0;entryDy=0;" edge="1" parent="1" source="CuO03zdZ_H9ETCIROUNS-63" target="CuO03zdZ_H9ETCIROUNS-119">
          <mxGeometry relative="1" as="geometry" />
        </mxCell>
        <mxCell id="CuO03zdZ_H9ETCIROUNS-63" value="调整-人员与门店关系信息" style="rounded=0;whiteSpace=wrap;html=1;fillColor=#26C0E5;" parent="1" vertex="1">
          <mxGeometry x="670" y="1225" width="110" height="40" as="geometry" />
        </mxCell>
        <mxCell id="CuO03zdZ_H9ETCIROUNS-64" value="组与人员关系已绑定" style="rounded=0;whiteSpace=wrap;html=1;fillColor=#FFAA60;" parent="1" vertex="1">
          <mxGeometry x="670" y="1085" width="110" height="40" as="geometry" />
        </mxCell>
        <mxCell id="CuO03zdZ_H9ETCIROUNS-78" style="edgeStyle=orthogonalEdgeStyle;rounded=0;orthogonalLoop=1;jettySize=auto;html=1;entryX=0;entryY=0.5;entryDx=0;entryDy=0;" parent="1" source="CuO03zdZ_H9ETCIROUNS-66" target="CuO03zdZ_H9ETCIROUNS-69" edge="1">
          <mxGeometry relative="1" as="geometry" />
        </mxCell>
        <mxCell id="CuO03zdZ_H9ETCIROUNS-66" value="编辑-销售人员" style="rounded=0;whiteSpace=wrap;html=1;fillColor=#26C0E5;" parent="1" vertex="1">
          <mxGeometry x="190" y="1155" width="110" height="40" as="geometry" />
        </mxCell>
        <mxCell id="CuO03zdZ_H9ETCIROUNS-71" style="edgeStyle=orthogonalEdgeStyle;rounded=0;orthogonalLoop=1;jettySize=auto;html=1;entryX=0;entryY=0.5;entryDx=0;entryDy=0;" parent="1" source="CuO03zdZ_H9ETCIROUNS-69" target="CuO03zdZ_H9ETCIROUNS-70" edge="1">
          <mxGeometry relative="1" as="geometry" />
        </mxCell>
        <mxCell id="CuO03zdZ_H9ETCIROUNS-69" value="业务规则验证" style="rounded=0;whiteSpace=wrap;html=1;fillColor=#B68BBF;" parent="1" vertex="1">
          <mxGeometry x="340" y="1155" width="110" height="40" as="geometry" />
        </mxCell>
        <mxCell id="CuO03zdZ_H9ETCIROUNS-91" style="edgeStyle=orthogonalEdgeStyle;rounded=0;orthogonalLoop=1;jettySize=auto;html=1;entryX=0.5;entryY=0;entryDx=0;entryDy=0;" parent="1" source="CuO03zdZ_H9ETCIROUNS-70" target="CuO03zdZ_H9ETCIROUNS-63" edge="1">
          <mxGeometry relative="1" as="geometry" />
        </mxCell>
        <mxCell id="CuO03zdZ_H9ETCIROUNS-70" value="组与人员关系修改" style="rounded=0;whiteSpace=wrap;html=1;fillColor=#FFAA60;" parent="1" vertex="1">
          <mxGeometry x="670" y="1155" width="110" height="40" as="geometry" />
        </mxCell>
        <mxCell id="CuO03zdZ_H9ETCIROUNS-87" value="" style="edgeStyle=orthogonalEdgeStyle;rounded=0;orthogonalLoop=1;jettySize=auto;html=1;" parent="1" source="CuO03zdZ_H9ETCIROUNS-81" target="CuO03zdZ_H9ETCIROUNS-84" edge="1">
          <mxGeometry relative="1" as="geometry" />
        </mxCell>
        <mxCell id="CuO03zdZ_H9ETCIROUNS-88" style="edgeStyle=orthogonalEdgeStyle;rounded=0;orthogonalLoop=1;jettySize=auto;html=1;entryX=1;entryY=0.5;entryDx=0;entryDy=0;" parent="1" source="CuO03zdZ_H9ETCIROUNS-81" target="CuO03zdZ_H9ETCIROUNS-53" edge="1">
          <mxGeometry relative="1" as="geometry" />
        </mxCell>
        <mxCell id="CuO03zdZ_H9ETCIROUNS-81" value="修改-组与区域关系(解绑)" style="rounded=0;whiteSpace=wrap;html=1;fillColor=#26C0E5;" parent="1" vertex="1">
          <mxGeometry x="670" y="835" width="110" height="40" as="geometry" />
        </mxCell>
        <mxCell id="CuO03zdZ_H9ETCIROUNS-89" style="edgeStyle=orthogonalEdgeStyle;rounded=0;orthogonalLoop=1;jettySize=auto;html=1;entryX=0.5;entryY=0;entryDx=0;entryDy=0;" parent="1" source="CuO03zdZ_H9ETCIROUNS-84" target="CuO03zdZ_H9ETCIROUNS-119" edge="1">
          <mxGeometry relative="1" as="geometry">
            <mxPoint x="580" y="645" as="targetPoint" />
          </mxGeometry>
        </mxCell>
        <mxCell id="CuO03zdZ_H9ETCIROUNS-84" value="修改-人员与门店关系信息&lt;div&gt;（解绑）&lt;/div&gt;" style="rounded=0;whiteSpace=wrap;html=1;fillColor=#26C0E5;" parent="1" vertex="1">
          <mxGeometry x="670" y="935" width="110" height="40" as="geometry" />
        </mxCell>
        <mxCell id="CuO03zdZ_H9ETCIROUNS-108" style="edgeStyle=orthogonalEdgeStyle;rounded=0;orthogonalLoop=1;jettySize=auto;html=1;entryX=0;entryY=0.5;entryDx=0;entryDy=0;" parent="1" source="CuO03zdZ_H9ETCIROUNS-90" target="CuO03zdZ_H9ETCIROUNS-33" edge="1">
          <mxGeometry relative="1" as="geometry" />
        </mxCell>
        <mxCell id="CuO03zdZ_H9ETCIROUNS-90" value="调整-销售组上下级" style="rounded=0;whiteSpace=wrap;html=1;fillColor=#26C0E5;" parent="1" vertex="1">
          <mxGeometry x="190" y="510" width="110" height="40" as="geometry" />
        </mxCell>
        <mxCell id="CuO03zdZ_H9ETCIROUNS-93" value="获取销售人员信息" style="rounded=0;whiteSpace=wrap;html=1;fillColor=#D7F792;" parent="1" vertex="1">
          <mxGeometry x="520" y="1770" width="110" height="40" as="geometry" />
        </mxCell>
        <mxCell id="CuO03zdZ_H9ETCIROUNS-94" value="获取组信息" style="rounded=0;whiteSpace=wrap;html=1;fillColor=#D7F792;" parent="1" vertex="1">
          <mxGeometry x="520" y="1830" width="110" height="40" as="geometry" />
        </mxCell>
        <mxCell id="CuO03zdZ_H9ETCIROUNS-95" value="获取区域信息" style="rounded=0;whiteSpace=wrap;html=1;fillColor=#D7F792;" parent="1" vertex="1">
          <mxGeometry x="520" y="1890" width="110" height="40" as="geometry" />
        </mxCell>
        <mxCell id="CuO03zdZ_H9ETCIROUNS-97" value="销售组" style="rounded=0;whiteSpace=wrap;html=1;fillColor=#FFE270;" parent="1" vertex="1">
          <mxGeometry x="190" y="185" width="110" height="40" as="geometry" />
        </mxCell>
        <mxCell id="CuO03zdZ_H9ETCIROUNS-118" style="edgeStyle=orthogonalEdgeStyle;rounded=0;orthogonalLoop=1;jettySize=auto;html=1;exitX=1;exitY=0.5;exitDx=0;exitDy=0;" parent="1" source="CuO03zdZ_H9ETCIROUNS-116" target="CuO03zdZ_H9ETCIROUNS-117" edge="1">
          <mxGeometry relative="1" as="geometry" />
        </mxCell>
        <mxCell id="CuO03zdZ_H9ETCIROUNS-116" value="指派\解绑-销售人员" style="rounded=0;whiteSpace=wrap;html=1;fillColor=#26C0E5;" parent="1" vertex="1">
          <mxGeometry x="190" y="1225" width="110" height="40" as="geometry" />
        </mxCell>
        <mxCell id="CuO03zdZ_H9ETCIROUNS-121" value="" style="edgeStyle=orthogonalEdgeStyle;rounded=0;orthogonalLoop=1;jettySize=auto;html=1;" parent="1" source="CuO03zdZ_H9ETCIROUNS-117" target="CuO03zdZ_H9ETCIROUNS-119" edge="1">
          <mxGeometry relative="1" as="geometry" />
        </mxCell>
        <mxCell id="CuO03zdZ_H9ETCIROUNS-117" value="业务规则验证" style="rounded=0;whiteSpace=wrap;html=1;fillColor=#B68BBF;" parent="1" vertex="1">
          <mxGeometry x="340" y="1225" width="110" height="40" as="geometry" />
        </mxCell>
        <mxCell id="CuO03zdZ_H9ETCIROUNS-119" value="人员与门店关系-已调整" style="rounded=0;whiteSpace=wrap;html=1;fillColor=#FFAA60;" parent="1" vertex="1">
          <mxGeometry x="480" y="1225" width="110" height="40" as="geometry" />
        </mxCell>
        <mxCell id="CuO03zdZ_H9ETCIROUNS-122" value="分析" style="rounded=0;whiteSpace=wrap;html=1;fillColor=#26C0E5;" parent="1" vertex="1">
          <mxGeometry x="180" y="2040" width="110" height="40" as="geometry" />
        </mxCell>
        <mxCell id="CuO03zdZ_H9ETCIROUNS-123" value="运营" style="shape=umlActor;verticalLabelPosition=bottom;verticalAlign=top;html=1;outlineConnect=0;" parent="1" vertex="1">
          <mxGeometry x="50" y="1660" width="30" height="60" as="geometry" />
        </mxCell>
        <mxCell id="sU835gR6TyCPR4Zn5wwY-2" value="销售人员关系" style="rounded=0;whiteSpace=wrap;html=1;fillColor=#FFE270;" parent="1" vertex="1">
          <mxGeometry x="190" y="1026" width="110" height="40" as="geometry" />
        </mxCell>
        <mxCell id="CuO03zdZ_H9ETCIROUNS-34" value="组上下级调整完成" style="rounded=0;whiteSpace=wrap;html=1;fillColor=#FFAA60;" parent="1" vertex="1">
          <mxGeometry x="670" y="510" width="110" height="40" as="geometry" />
        </mxCell>
        <mxCell id="krUybGp2ORGPFsP9SGWh-13" value="销售区域" style="rounded=0;whiteSpace=wrap;html=1;fillColor=#FFE270;" vertex="1" parent="1">
          <mxGeometry x="190" y="645" width="110" height="40" as="geometry" />
        </mxCell>
      </root>
    </mxGraphModel>
  </diagram>
</mxfile>
